# xmcd
#
# Track frame offsets: 
#        150
#        12064
#        23968
#        36669
#        49542
#        60467
#        73365
#        87276
#        101127
#        113536
#        126806
#        141618
#        153760
#        166377
#        178535
#        192347
#        204312
#        217578
#        230003
#        242601
#        256919
#        270439
#        282034
#        295904
#        307538
#
# Disc length: 4273 seconds
#
# Revision: 0
# Processed by: cddbd v1.5.2PL0 Copyright (c) Steve Scherf et al.
# Submitted via: ExactAudioCopy v0.99pb5
#
DISCID=5910af19
DTITLE=Various Artist - Drunk - CD3
DYEAR=1960
DGENRE=Blues
TTITLE0=The Four Deuces - W-P-L-J (1956)
TTITLE1=George Jones - White Lightning (1958)
TTITLE2=Dinah Washington - Joy Juice (1946)
TTITLE3=Wynonie Harris - My Baby's Barrel House (1946)
TTITLE4=Jimmy Liggins - I Ain't Drunk (1954)
TTITLE5=Dave Bartholomew - Who Drank My Beer While I Was In The Rear (
TTITLE5=1952)
TTITLE6=Albert Ammons and Pete Johnson - Barrelhouse Boogie (1941)
TTITLE7=Walter Davis - Sloppy Drunk Again (1935)
TTITLE8=Stuff Smith - Old Joe's Hittin' The Jug (1936)
TTITLE9=Glenn Miller - Little Brown Jug (1939)
TTITLE10=Jay McShann - When I've Been Drinking (1945)
TTITLE11=Johnny Tyler - It Ain't Far To The Bar (1947)
TTITLE12=Luke Wills's Rhythm Busters - Shut Up And Drink Your Beer (19
TTITLE12=47)
TTITLE13=Maddox Brothers and Rose - Hangover Blues (1953)
TTITLE14=Joe Liggins - Pink Champagne (1950)
TTITLE15=Wynonie Harris - Drinkin' By Myself (1946)
TTITLE16=The Stanley Brothers - The Little Glass Of Wine (1952)
TTITLE17=Slim Gaillard and His Flat Foot Floogie Boys - Groove Juice Spe
TTITLE17=cial (1942)
TTITLE18=Bull Moose Jackson - I Know Who Threw The Whiskey In The Well
TTITLE18=(1946)
TTITLE19=Wynonie Harris - Whiskey And Jelly-Roll Blues (1947)
TTITLE20=Amos Milburn - Just One More Drink (1951)
TTITLE21=Jay McShann - Bar Fly Blues (1947)
TTITLE22=Screamin' Jay Hawkins - Alligator Wine (1958)
TTITLE23=Billy 'Red' Love - Juiced (1951)
TTITLE24=Louvin Brothers - The Kneeling Drunkard's Plea (1960)
EXTD=
EXTT0=
EXTT1=
EXTT2=
EXTT3=
EXTT4=
EXTT5=
EXTT6=
EXTT7=
EXTT8=
EXTT9=
EXTT10=
EXTT11=
EXTT12=
EXTT13=
EXTT14=
EXTT15=
EXTT16=
EXTT17=
EXTT18=
EXTT19=
EXTT20=
EXTT21=
EXTT22=
EXTT23=
EXTT24=
PLAYORDER=
